<?xml version="1.0" encoding="UTF-8" ?>
<svg version="1.1" width="128" height="128" xmlns="http://www.w3.org/2000/svg" shape-rendering="crispEdges">
<rect x="44" y="19" width="44" height="12" fill="#8F563B" />
<rect x="36" y="23" width="8" height="8" fill="#8F563B" />
<rect x="88" y="23" width="4" height="49" fill="#8F563B" />
<rect x="33" y="27" width="3" height="28" fill="#8F563B" />
<rect x="92" y="27" width="3" height="32" fill="#8F563B" />
<rect x="29" y="31" width="4" height="57" fill="#8F563B" />
<rect x="36" y="31" width="4" height="61" fill="#8F563B" />
<rect x="40" y="31" width="4" height="4" fill="#663931" />
<rect x="44" y="31" width="22" height="12" fill="#8F563B" />
<rect x="66" y="31" width="3" height="4" fill="#5B2F28" />
<rect x="69" y="31" width="11" height="41" fill="#8F563B" />
<rect x="80" y="31" width="4" height="4" fill="#663931" />
<rect x="84" y="31" width="4" height="69" fill="#8F563B" />
<rect x="95" y="31" width="4" height="61" fill="#8F563B" />
<rect x="25" y="35" width="4" height="45" fill="#8F563B" />
<rect x="40" y="35" width="4" height="16" fill="#8F563B" />
<rect x="66" y="35" width="3" height="69" fill="#8F563B" />
<rect x="80" y="35" width="4" height="8" fill="#8F563B" />
<rect x="21" y="39" width="4" height="33" fill="#8F563B" />
<rect x="99" y="39" width="4" height="49" fill="#8F563B" />
<rect x="44" y="43" width="11" height="57" fill="#8F563B" />
<rect x="55" y="43" width="3" height="4" fill="#663931" />
<rect x="58" y="43" width="8" height="12" fill="#8F563B" />
<rect x="80" y="43" width="4" height="4" fill="#663931" />
<rect x="55" y="47" width="3" height="25" fill="#8F563B" />
<rect x="80" y="47" width="4" height="16" fill="#8F563B" />
<rect x="40" y="51" width="4" height="4" fill="#663931" />
<rect x="33" y="55" width="3" height="4" fill="#5B2F28" />
<rect x="40" y="55" width="4" height="17" fill="#8F563B" />
<rect x="58" y="55" width="4" height="49" fill="#8F563B" />
<rect x="62" y="55" width="4" height="4" fill="#5B2F28" />
<rect x="103" y="55" width="3" height="29" fill="#8F563B" />
<rect x="33" y="59" width="3" height="4" fill="#663931" />
<rect x="62" y="59" width="4" height="45" fill="#8F563B" />
<rect x="92" y="59" width="3" height="4" fill="#663931" />
<rect x="33" y="63" width="3" height="29" fill="#8F563B" />
<rect x="80" y="63" width="4" height="5" fill="#5B2F28" />
<rect x="92" y="63" width="3" height="33" fill="#8F563B" />
<rect x="80" y="68" width="4" height="32" fill="#8F563B" />
<rect x="40" y="72" width="4" height="4" fill="#663931" />
<rect x="55" y="72" width="3" height="4" fill="#5B2F28" />
<rect x="69" y="72" width="4" height="4" fill="#663931" />
<rect x="73" y="72" width="7" height="28" fill="#8F563B" />
<rect x="88" y="72" width="4" height="4" fill="#663931" />
<rect x="40" y="76" width="4" height="20" fill="#8F563B" />
<rect x="55" y="76" width="3" height="12" fill="#8F563B" />
<rect x="69" y="76" width="4" height="8" fill="#8F563B" />
<rect x="88" y="76" width="4" height="20" fill="#8F563B" />
<rect x="69" y="84" width="4" height="4" fill="#5B2F28" />
<rect x="55" y="88" width="3" height="4" fill="#663931" />
<rect x="69" y="88" width="4" height="16" fill="#8F563B" />
<rect x="55" y="92" width="3" height="12" fill="#8F563B" />
</svg>