<?xml version="1.0" encoding="UTF-8" ?>
<svg version="1.1" width="32" height="32" xmlns="http://www.w3.org/2000/svg" shape-rendering="crispEdges">
<rect x="10" y="9" width="4" height="1" fill="#222034" />
<rect x="18" y="9" width="4" height="1" fill="#222034" />
<rect x="9" y="10" width="1" height="1" fill="#222034" />
<rect x="10" y="10" width="4" height="7" fill="#DF3A3A" />
<rect x="14" y="10" width="1" height="1" fill="#222034" />
<rect x="17" y="10" width="1" height="1" fill="#222034" />
<rect x="18" y="10" width="4" height="1" fill="#DF3A3A" />
<rect x="22" y="10" width="1" height="1" fill="#222034" />
<rect x="8" y="11" width="1" height="5" fill="#222034" />
<rect x="9" y="11" width="1" height="5" fill="#DF3A3A" />
<rect x="14" y="11" width="1" height="10" fill="#DF3A3A" />
<rect x="15" y="11" width="2" height="1" fill="#222034" />
<rect x="17" y="11" width="3" height="4" fill="#DF3A3A" />
<rect x="20" y="11" width="1" height="1" fill="#FFFFFF" />
<rect x="21" y="11" width="2" height="5" fill="#DF3A3A" />
<rect x="23" y="11" width="1" height="5" fill="#222034" />
<rect x="15" y="12" width="2" height="10" fill="#DF3A3A" />
<rect x="20" y="12" width="1" height="1" fill="#DF3A3A" />
<rect x="20" y="13" width="1" height="2" fill="#FFFFFF" />
<rect x="17" y="15" width="2" height="5" fill="#DF3A3A" />
<rect x="19" y="15" width="1" height="2" fill="#FFFFFF" />
<rect x="20" y="15" width="1" height="3" fill="#DF3A3A" />
<rect x="9" y="16" width="1" height="1" fill="#222034" />
<rect x="21" y="16" width="1" height="1" fill="#DF3A3A" />
<rect x="22" y="16" width="1" height="1" fill="#222034" />
<rect x="10" y="17" width="1" height="1" fill="#222034" />
<rect x="11" y="17" width="3" height="1" fill="#DF3A3A" />
<rect x="19" y="17" width="1" height="2" fill="#DF3A3A" />
<rect x="21" y="17" width="1" height="1" fill="#222034" />
<rect x="11" y="18" width="1" height="1" fill="#222034" />
<rect x="12" y="18" width="2" height="1" fill="#DF3A3A" />
<rect x="20" y="18" width="1" height="1" fill="#222034" />
<rect x="12" y="19" width="1" height="1" fill="#222034" />
<rect x="13" y="19" width="1" height="1" fill="#DF3A3A" />
<rect x="19" y="19" width="1" height="1" fill="#222034" />
<rect x="13" y="20" width="1" height="1" fill="#222034" />
<rect x="17" y="20" width="1" height="1" fill="#DF3A3A" />
<rect x="18" y="20" width="1" height="1" fill="#222034" />
<rect x="14" y="21" width="1" height="1" fill="#222034" />
<rect x="17" y="21" width="1" height="1" fill="#222034" />
<rect x="15" y="22" width="2" height="1" fill="#222034" />
</svg>